<svg width="254" height="69" viewBox="0 0 254 69" fill="none" xmlns="http://www.w3.org/2000/svg">
<path d="M1.73145 49.525C6.50098 49.525 11.2705 49.525 16.0439 49.525C16.8604 49.525 17.5283 48.9742 17.7666 48.2086C20.751 38.6578 23.7314 29.1031 26.7119 19.5524C25.5635 19.5524 24.415 19.5524 23.2627 19.5524C26.8408 29.5016 30.4189 39.4508 33.9971 49.4039C34.5674 50.986 36.9854 51.2281 37.4463 49.4039C41.4229 33.6813 45.3994 17.9586 49.376 2.23595C48.2236 2.23595 47.0752 2.23595 45.9229 2.23595C49.7002 23.732 53.4775 45.2242 57.2549 66.7164C57.5166 68.2164 59.8721 68.4938 60.5244 67.1422C63.3955 61.2047 66.2705 55.2594 69.1416 49.318C69.8564 47.8414 66.915 49.525 68.8486 49.525C70.7314 49.525 72.6143 49.525 74.4971 49.525C77.8721 49.525 81.2471 49.525 84.6221 49.525C86.9307 49.525 86.9307 45.943 84.6221 45.943C79.0557 45.943 73.4932 45.943 67.9268 45.943C67.333 45.943 66.6494 46.275 66.3799 46.8297C63.3994 52.9977 60.4189 59.1656 57.4346 65.3375C58.5244 65.4781 59.6143 65.6227 60.7041 65.7633C56.9268 44.2711 53.1533 22.7789 49.376 1.28673C49.0596 -0.502328 46.3369 -0.35389 45.9229 1.28673C41.9502 17.0055 37.9736 32.7281 33.9971 48.4508C35.1494 48.4508 36.2979 48.4508 37.4463 48.4508C33.8682 38.4977 30.29 28.5485 26.7119 18.5992C26.1221 16.9508 23.8135 16.8375 23.2627 18.5992C20.2822 28.15 17.3018 37.7047 14.3174 47.2555C14.8916 46.818 15.4697 46.3805 16.0439 45.943C11.2705 45.943 6.50098 45.943 1.73145 45.943C-0.577148 45.943 -0.577148 49.525 1.73145 49.525Z" fill="white"/>
<path d="M98.2957 55.1692C95.6589 55.1692 93.116 54.7629 90.6707 53.9504C88.2214 53.1301 86.2957 52.0676 84.8894 50.7629L86.7488 46.8567C88.0808 48.0676 89.7878 49.0442 91.8738 49.7942C93.9558 50.5442 96.0964 50.9192 98.2957 50.9192C101.19 50.9192 103.35 50.4309 104.78 49.4504C106.218 48.4621 106.936 47.1496 106.936 45.5129C106.936 44.3176 106.546 43.341 105.764 42.591C104.983 41.841 104.014 41.2707 102.858 40.8723C101.71 40.466 100.093 40.0129 97.9988 39.5129C95.3621 38.8801 93.2332 38.2473 91.6082 37.6223C89.991 36.9895 88.6121 36.0129 87.4675 34.7004C86.3191 33.3801 85.7488 31.5988 85.7488 29.3567C85.7488 27.4934 86.2371 25.8098 87.2175 24.3098C88.1941 22.8098 89.6863 21.6145 91.6863 20.716C93.6863 19.8098 96.1707 19.3567 99.1394 19.3567C101.21 19.3567 103.249 19.6301 105.249 20.1692C107.249 20.7004 108.96 21.466 110.389 22.466L108.749 26.466C107.28 25.5285 105.71 24.8215 104.046 24.341C102.378 23.8528 100.741 23.6067 99.1394 23.6067C96.3035 23.6067 94.1785 24.1301 92.7644 25.1692C91.3464 26.2004 90.6394 27.5363 90.6394 29.1692C90.6394 30.3684 91.0378 31.341 91.8425 32.091C92.6433 32.841 93.6316 33.427 94.8113 33.841C95.9988 34.259 97.6082 34.7004 99.6394 35.1692C102.272 35.7942 104.389 36.427 105.983 37.0598C107.585 37.6965 108.96 38.6653 110.108 39.966C111.264 41.2707 111.843 43.0207 111.843 45.216C111.843 47.052 111.343 48.7278 110.343 50.2473C109.343 51.759 107.827 52.9582 105.796 53.841C103.764 54.7278 101.264 55.1692 98.2957 55.1692Z" fill="white"/>
<path d="M141.435 46.0129H122.841L118.981 54.7629H113.841L129.685 19.7629H134.638L150.544 54.7629H145.294L141.435 46.0129ZM139.685 42.0129L132.138 24.8567L124.591 42.0129H139.685Z" fill="white"/>
<path d="M169.388 19.7629C173.92 19.7629 177.482 20.8488 180.076 23.0129C182.677 25.1809 183.982 28.1653 183.982 31.966C183.982 35.7707 182.677 38.7551 180.076 40.9192C177.482 43.0871 173.92 44.1692 169.388 44.1692H160.732V54.7629H155.732V19.7629H169.388ZM169.232 39.8098C172.396 39.8098 174.814 39.1379 176.482 37.7942C178.146 36.4426 178.982 34.4973 178.982 31.966C178.982 29.4348 178.146 27.4934 176.482 26.1379C174.814 24.7863 172.396 24.1067 169.232 24.1067H160.732V39.8098H169.232Z" fill="white"/>
<path d="M217.233 50.4192V54.7629H191.826V19.7629H216.53V24.1067H196.826V34.8567H214.373V39.1067H196.826V50.4192H217.233Z" fill="white"/>
<path d="M238.978 19.7629C243.509 19.7629 247.071 20.8488 249.665 23.0129C252.267 25.1809 253.571 28.1653 253.571 31.966C253.571 35.7707 252.267 38.7551 249.665 40.9192C247.071 43.0871 243.509 44.1692 238.978 44.1692H230.321V54.7629H225.321V19.7629H238.978ZM238.821 39.8098C241.985 39.8098 244.403 39.1379 246.071 37.7942C247.735 36.4426 248.571 34.4973 248.571 31.966C248.571 29.4348 247.735 27.4934 246.071 26.1379C244.403 24.7863 241.985 24.1067 238.821 24.1067H230.321V39.8098H238.821Z" fill="white"/>
</svg>
