<svg xmlns="http://www.w3.org/2000/svg" width="512" height="512" style="overflow: visible;" viewBox="0 0 512 512" data-svgdocument="" id="_UzgjkjHYqrFMrtCNq0l4h" class="fl-svgdocument" x="0" y="0" xmlns:xlink="http://www.w3.org/1999/xlink"><defs id="__RqCIbH267J8OzLWsSqwn" transform="matrix(0.6762421727180481, 0, 0, 0.6762421727180481, -30.09661102294922, 125.79170227050781)" data-uid="o_eja966bem_5"></defs><path text="sapep" text-anchor="start" font-size="100" letter-spacing="0" side="left" offset="0" dx="0" dy="0" space="preserve" href="" font-family="Bungee" font-scale="contain" transform="matrix(0.6127473711967468, 0, 0, 0.6127473711967468, 156.15570068359375, 253.8345489501953)" x="0" y="0" fill="#f7582d" data-fl-textpath="" id="_rP_DFIRndXBtZDuRhN9pe" data-uid="o_eja966bem_6" d="M 40.3 0L 40.3 0L 8.7 0Q 6.8 0  5.95-0.85Q 5.1-1.7  5.1-3.6L 5.1-3.6L 5.1-15.3Q 5.1-17.2  5.95-18.05Q 6.8-18.9  8.7-18.9L 8.7-18.9L 35.6-18.9Q 36.9-18.9  37.55-19.75Q 38.2-20.6  38.2-21.8L 38.2-21.8Q 38.2-23.5  37.55-24.3Q 36.9-25.1  35.6-25.2L 35.6-25.2L 20.6-27.3Q 13.6-28.3  9.35-31.9Q 5.1-35.5  5.1-43.9L 5.1-43.9L 5.1-54.4Q 5.1-62.9  10.6-67.45Q 16.1-72  25.8-72L 25.8-72L 53.8-72Q 55.7-72  56.55-71.15Q 57.4-70.3  57.4-68.4L 57.4-68.4L 57.4-56.5Q 57.4-54.6  56.55-53.75Q 55.7-52.9  53.8-52.9L 53.8-52.9L 30.5-52.9Q 29.2-52.9  28.5-52.05Q 27.8-51.2  27.8-49.9L 27.8-49.9Q 27.8-48.6  28.5-47.7Q 29.2-46.8  30.5-46.7L 30.5-46.7L 45.4-44.7Q 52.4-43.7  56.7-40.1Q 61-36.5  61-28.1L 61-28.1L 61-17.6Q 61-9.1  55.45-4.55Q 49.9 0  40.3 0ZM 98-51L 98-51L 93.3-35.8L 109-35.8L 104.3-51Q 103.9-51.9  103.45-52.3Q 103-52.7  102.4-52.7L 102.4-52.7L 99.9-52.7Q 99.3-52.7  98.85-52.3Q 98.4-51.9  98-51ZM 92.3-17.6L 92.3-3.6Q 92.3-1.7  91.45-0.85Q 90.6 0  88.7 0L 88.7 0L 74 0Q 72.1 0  71.25-0.85Q 70.4-1.7  70.4-3.6L 70.4-3.6L 70.4-30Q 70.4-33  71.35-36.9Q 72.3-40.8  74.3-46L 74.3-46L 83-68.7Q 83.6-70.4  84.85-71.2Q 86.1-72  88.1-72L 88.1-72L 115-72Q 116.9-72  118.15-71.2Q 119.4-70.4  120-68.7L 120-68.7L 128.7-46Q 130.7-40.8  131.65-36.9Q 132.6-33  132.6-30L 132.6-30L 132.6-3.6Q 132.6-1.7  131.75-0.85Q 130.9 0  129 0L 129 0L 113.9 0Q 111.9 0  110.95-0.85Q 110-1.7  110-3.6L 110-3.6L 110-17.6L 92.3-17.6ZM 164 0L 164 0L 148.5 0Q 146.6 0  145.75-0.85Q 144.9-1.7  144.9-3.6L 144.9-3.6L 144.9-68.4Q 144.9-70.3  145.75-71.15Q 146.6-72  148.5-72L 148.5-72L 179.1-72Q 192.7-72  197.7-66.6Q 202.7-61.2  202.7-52.5L 202.7-52.5L 202.7-39.7Q 202.7-31  197.7-25.6Q 192.7-20.2  179.1-20.2L 179.1-20.2L 167.6-20.2L 167.6-3.6Q 167.6-1.7  166.75-0.85Q 165.9 0  164 0ZM 176.4-53.3L 167.4-53.3L 167.4-38.2L 176.4-38.2Q 179.3-38.2  180.2-39.7Q 181.1-41.2  181.1-43.1L 181.1-43.1L 181.1-48.4Q 181.1-50.3  180.2-51.8Q 179.3-53.3  176.4-53.3L 176.4-53.3ZM 263.09999999999997 0L 263.09999999999997 0L 216.7 0Q 214.79999999999998 0  213.95-0.85Q 213.1-1.7  213.1-3.6L 213.1-3.6L 213.1-68.4Q 213.1-70.3  213.95-71.15Q 214.79999999999998-72  216.7-72L 216.7-72L 263.09999999999997-72Q 265-72  265.84999999999997-71.15Q 266.7-70.3  266.7-68.4L 266.7-68.4L 266.7-56.7Q 266.7-54.8  265.84999999999997-53.95Q 265-53.1  263.09999999999997-53.1L 263.09999999999997-53.1L 235.5-53.1L 235.5-45.4L 255-45.4Q 256.9-45.4  257.75-44.55Q 258.59999999999997-43.7  258.59999999999997-41.8L 258.59999999999997-41.8L 258.59999999999997-31.1Q 258.59999999999997-29.2  257.75-28.35Q 256.9-27.5  255-27.5L 255-27.5L 235.5-27.5L 235.5-18.9L 263.09999999999997-18.9Q 265-18.9  265.84999999999997-18.05Q 266.7-17.2  266.7-15.3L 266.7-15.3L 266.7-3.6Q 266.7-1.7  265.84999999999997-0.85Q 265 0  263.09999999999997 0ZM 297.6 0L 297.6 0L 282.1 0Q 280.20000000000005 0  279.35-0.85Q 278.5-1.7  278.5-3.6L 278.5-3.6L 278.5-68.4Q 278.5-70.3  279.35-71.15Q 280.20000000000005-72  282.1-72L 282.1-72L 312.70000000000005-72Q 326.3-72  331.3-66.6Q 336.3-61.2  336.3-52.5L 336.3-52.5L 336.3-39.7Q 336.3-31  331.3-25.6Q 326.3-20.2  312.70000000000005-20.2L 312.70000000000005-20.2L 301.20000000000005-20.2L 301.20000000000005-3.6Q 301.20000000000005-1.7  300.35-0.85Q 299.5 0  297.6 0ZM 310-53.3L 301-53.3L 301-38.2L 310-38.2Q 312.90000000000003-38.2  313.8-39.7Q 314.70000000000005-41.2  314.70000000000005-43.1L 314.70000000000005-43.1L 314.70000000000005-48.4Q 314.70000000000005-50.3  313.8-51.8Q 312.90000000000003-53.3  310-53.3L 310-53.3Z"></path><path id="_syLjUrCp96uuEDWdiDjv2" fill="#fc9219" d="M85.3,24.9L85.3,24.9C77.9,10.1,62.6,0,45,0S12.1,10.1,4.7,24.9v0c-6.6,13.2-6.9,30.1,3,46.8   C13.8,81.8,28.5,90,40.3,90H90V45C90,37.8,88.3,30.9,85.3,24.9z" transform="matrix(1.0956370830535889, 0, 0, 1.0956370830535889, 48.031982421875, 206.6963348388672)" data-uid="o_eja966bem_7"></path><path id="_QNr54hs33VMX7J6W7hGBY" fill="#ffffff" transform="matrix(0.1878398209810257, 0, 0, 0.1878398209810257, 50.94244384765625, 210.61001586914062)" data-type="polygon" d="M420.333 203.67L289.667 203.67L289.667 73.004L210.333 73.004L210.333 203.67L79.667 203.67L79.667 283.004L210.333 283.004L210.333 413.67L289.667 413.67L289.667 283.004L420.333 283.004Z" data-uid="o_eja966bem_8"></path></svg>