<?xml version="1.0" encoding="UTF-8"?><svg xmlns="http://www.w3.org/2000/svg" xmlns:xlink="http://www.w3.org/1999/xlink" width="375pt" zoomAndPan="magnify" viewBox="0 0 375 374.999991" height="374.999991pt" preserveAspectRatio="xMidYMid meet" version="1.2"><defs><g/><clipPath xml:id="clip1" id="clip1"><path d="M 40.914062 37.5 L 334.914062 37.5 L 334.914062 331.5 L 40.914062 331.5 Z M 40.914062 37.5 "/></clipPath><clipPath xml:id="clip2" id="clip2"><path d="M 63.605469 234.921875 L 308.796875 234.921875 L 308.796875 317.496094 L 63.605469 317.496094 Z M 63.605469 234.921875 "/></clipPath></defs><g xml:id="surface1" id="surface1"><g clip-rule="nonzero" clip-path="url(#clip1)"><path style=" stroke:none;fill-rule:nonzero;fill:rgb(100%,100%,94.119263%);fill-opacity:1;" d="M 334.914062 184.5 C 334.914062 186.90625 334.851562 189.308594 334.734375 191.714844 C 334.617188 194.117188 334.441406 196.515625 334.203125 198.910156 C 333.96875 201.300781 333.675781 203.691406 333.320312 206.070312 C 332.96875 208.449219 332.558594 210.820312 332.085938 213.179688 C 331.617188 215.539062 331.089844 217.882812 330.507812 220.21875 C 329.921875 222.550781 329.28125 224.871094 328.582031 227.171875 C 327.882812 229.472656 327.128906 231.757812 326.320312 234.023438 C 325.507812 236.289062 324.644531 238.53125 323.722656 240.753906 C 322.800781 242.976562 321.828125 245.175781 320.800781 247.351562 C 319.769531 249.523438 318.6875 251.671875 317.554688 253.796875 C 316.421875 255.917969 315.234375 258.007812 314 260.074219 C 312.761719 262.136719 311.476562 264.167969 310.136719 266.167969 C 308.800781 268.167969 307.417969 270.136719 305.984375 272.066406 C 304.550781 274 303.070312 275.894531 301.546875 277.753906 C 300.019531 279.617188 298.449219 281.4375 296.832031 283.21875 C 295.214844 285 293.558594 286.742188 291.855469 288.445312 C 290.15625 290.144531 288.414062 291.804688 286.632812 293.417969 C 284.847656 295.035156 283.027344 296.605469 281.167969 298.132812 C 279.308594 299.660156 277.414062 301.136719 275.480469 302.570312 C 273.546875 304.003906 271.582031 305.390625 269.582031 306.726562 C 267.582031 308.0625 265.550781 309.347656 263.484375 310.585938 C 261.421875 311.824219 259.328125 313.007812 257.207031 314.140625 C 255.085938 315.277344 252.9375 316.359375 250.761719 317.386719 C 248.589844 318.414062 246.390625 319.390625 244.167969 320.308594 C 241.945312 321.230469 239.699219 322.097656 237.433594 322.90625 C 235.171875 323.71875 232.886719 324.472656 230.585938 325.171875 C 228.28125 325.867188 225.964844 326.511719 223.628906 327.09375 C 221.296875 327.679688 218.949219 328.207031 216.589844 328.675781 C 214.230469 329.144531 211.863281 329.554688 209.480469 329.910156 C 207.101562 330.261719 204.714844 330.554688 202.320312 330.792969 C 199.925781 331.027344 197.527344 331.203125 195.125 331.324219 C 192.722656 331.441406 190.316406 331.5 187.914062 331.5 C 185.507812 331.5 183.101562 331.441406 180.699219 331.324219 C 178.296875 331.203125 175.898438 331.027344 173.503906 330.792969 C 171.109375 330.554688 168.722656 330.261719 166.34375 329.910156 C 163.964844 329.554688 161.59375 329.144531 159.234375 328.675781 C 156.875 328.207031 154.527344 327.679688 152.195312 327.09375 C 149.859375 326.511719 147.542969 325.867188 145.242188 325.171875 C 142.9375 324.472656 140.65625 323.71875 138.390625 322.90625 C 136.125 322.097656 133.878906 321.230469 131.65625 320.308594 C 129.433594 319.390625 127.238281 318.414062 125.0625 317.386719 C 122.886719 316.359375 120.738281 315.277344 118.617188 314.140625 C 116.496094 313.007812 114.402344 311.824219 112.339844 310.585938 C 110.277344 309.347656 108.242188 308.0625 106.242188 306.726562 C 104.242188 305.390625 102.277344 304.003906 100.34375 302.570312 C 98.414062 301.136719 96.515625 299.660156 94.65625 298.132812 C 92.796875 296.605469 90.976562 295.035156 89.191406 293.417969 C 87.410156 291.804688 85.667969 290.144531 83.96875 288.445312 C 82.265625 286.742188 80.609375 285 78.992188 283.21875 C 77.378906 281.4375 75.804688 279.617188 74.28125 277.753906 C 72.753906 275.894531 71.273438 274 69.839844 272.066406 C 68.40625 270.136719 67.023438 268.167969 65.6875 266.167969 C 64.351562 264.167969 63.0625 262.136719 61.828125 260.074219 C 60.589844 258.007812 59.402344 255.917969 58.269531 253.796875 C 57.136719 251.671875 56.054688 249.523438 55.027344 247.351562 C 53.996094 245.175781 53.023438 242.976562 52.101562 240.753906 C 51.179688 238.53125 50.316406 236.289062 49.503906 234.023438 C 48.695312 231.757812 47.941406 229.472656 47.242188 227.171875 C 46.542969 224.871094 45.902344 222.550781 45.316406 220.21875 C 44.734375 217.882812 44.207031 215.539062 43.738281 213.179688 C 43.269531 210.820312 42.855469 208.449219 42.503906 206.070312 C 42.152344 203.691406 41.855469 201.300781 41.621094 198.910156 C 41.382812 196.515625 41.207031 194.117188 41.089844 191.714844 C 40.972656 189.308594 40.914062 186.90625 40.914062 184.5 C 40.914062 182.09375 40.972656 179.691406 41.089844 177.285156 C 41.207031 174.882812 41.382812 172.484375 41.621094 170.089844 C 41.855469 167.699219 42.152344 165.308594 42.503906 162.929688 C 42.855469 160.550781 43.269531 158.179688 43.738281 155.820312 C 44.207031 153.460938 44.734375 151.117188 45.316406 148.78125 C 45.902344 146.449219 46.542969 144.128906 47.242188 141.828125 C 47.941406 139.527344 48.695312 137.242188 49.503906 134.976562 C 50.316406 132.710938 51.179688 130.46875 52.101562 128.246094 C 53.023438 126.023438 53.996094 123.824219 55.027344 121.648438 C 56.054688 119.472656 57.136719 117.328125 58.269531 115.203125 C 59.402344 113.082031 60.589844 110.992188 61.828125 108.925781 C 63.0625 106.863281 64.351562 104.832031 65.6875 102.832031 C 67.023438 100.832031 68.40625 98.863281 69.839844 96.933594 C 71.273438 95 72.753906 93.105469 74.28125 91.246094 C 75.804688 89.382812 77.378906 87.5625 78.992188 85.78125 C 80.609375 84 82.265625 82.257812 83.96875 80.554688 C 85.667969 78.855469 87.410156 77.195312 89.191406 75.582031 C 90.976562 73.964844 92.796875 72.394531 94.65625 70.867188 C 96.515625 69.339844 98.414062 67.863281 100.34375 66.429688 C 102.277344 64.996094 104.242188 63.609375 106.242188 62.273438 C 108.242188 60.9375 110.277344 59.652344 112.339844 58.414062 C 114.402344 57.175781 116.496094 55.992188 118.617188 54.859375 C 120.738281 53.722656 122.886719 52.640625 125.0625 51.613281 C 127.238281 50.585938 129.433594 49.609375 131.65625 48.691406 C 133.878906 47.769531 136.125 46.902344 138.390625 46.09375 C 140.65625 45.28125 142.9375 44.527344 145.242188 43.828125 C 147.542969 43.132812 149.859375 42.488281 152.195312 41.90625 C 154.527344 41.320312 156.875 40.792969 159.234375 40.324219 C 161.59375 39.855469 163.964844 39.445312 166.34375 39.089844 C 168.722656 38.738281 171.109375 38.445312 173.503906 38.207031 C 175.898438 37.972656 178.296875 37.796875 180.699219 37.675781 C 183.101562 37.558594 185.507812 37.5 187.914062 37.5 C 190.316406 37.5 192.722656 37.558594 195.125 37.675781 C 197.527344 37.796875 199.925781 37.972656 202.320312 38.207031 C 204.714844 38.445312 207.101562 38.738281 209.480469 39.089844 C 211.863281 39.445312 214.230469 39.855469 216.589844 40.324219 C 218.949219 40.792969 221.296875 41.320312 223.628906 41.90625 C 225.964844 42.488281 228.28125 43.132812 230.585938 43.828125 C 232.886719 44.527344 235.171875 45.28125 237.433594 46.09375 C 239.699219 46.902344 241.945312 47.769531 244.167969 48.691406 C 246.390625 49.609375 248.589844 50.585938 250.761719 51.613281 C 252.9375 52.640625 255.085938 53.722656 257.207031 54.859375 C 259.328125 55.992188 261.421875 57.175781 263.484375 58.414062 C 265.550781 59.652344 267.582031 60.9375 269.582031 62.273438 C 271.582031 63.609375 273.546875 64.996094 275.480469 66.429688 C 277.414062 67.863281 279.308594 69.339844 281.167969 70.867188 C 283.027344 72.394531 284.847656 73.964844 286.632812 75.582031 C 288.414062 77.195312 290.15625 78.855469 291.855469 80.554688 C 293.558594 82.257812 295.214844 84 296.832031 85.78125 C 298.449219 87.5625 300.019531 89.382812 301.546875 91.246094 C 303.070312 93.105469 304.550781 95 305.984375 96.933594 C 307.417969 98.863281 308.800781 100.832031 310.136719 102.832031 C 311.476562 104.832031 312.761719 106.863281 314 108.925781 C 315.234375 110.992188 316.421875 113.082031 317.554688 115.203125 C 318.6875 117.328125 319.769531 119.472656 320.800781 121.648438 C 321.828125 123.824219 322.800781 126.023438 323.722656 128.246094 C 324.644531 130.46875 325.507812 132.710938 326.320312 134.976562 C 327.128906 137.242188 327.882812 139.527344 328.582031 141.828125 C 329.28125 144.128906 329.921875 146.449219 330.507812 148.78125 C 331.089844 151.117188 331.617188 153.460938 332.089844 155.820312 C 332.558594 158.179688 332.96875 160.550781 333.320312 162.929688 C 333.675781 165.308594 333.96875 167.699219 334.203125 170.089844 C 334.441406 172.484375 334.617188 174.882812 334.734375 177.285156 C 334.851562 179.691406 334.914062 182.09375 334.914062 184.5 Z M 334.914062 184.5 "/></g><g style="fill:rgb(32.939148%,32.939148%,32.939148%);fill-opacity:1;"><g transform="translate(98.301743, 223.987765)"><path style="stroke:none;" d="M -0.65625 -19.140625 C -0.457031 -15.878906 -0.773438 -12.703125 -1.609375 -9.609375 C -2.441406 -6.515625 -3.601562 -4.0625 -5.09375 -2.25 L -10.0625 -4.21875 C -8.675781 -5.96875 -7.59375 -8.15625 -6.8125 -10.78125 C -6.039062 -13.414062 -5.738281 -16.097656 -5.90625 -18.828125 C -6.125 -22.410156 -6.894531 -25.050781 -8.21875 -26.75 C -9.539062 -28.457031 -11.21875 -29.25 -13.25 -29.125 C -14.71875 -29.03125 -15.890625 -28.46875 -16.765625 -27.4375 C -17.640625 -26.414062 -18.28125 -25.175781 -18.6875 -23.71875 C -19.09375 -22.269531 -19.523438 -20.226562 -19.984375 -17.59375 C -20.578125 -14.289062 -21.203125 -11.617188 -21.859375 -9.578125 C -22.515625 -7.535156 -23.617188 -5.753906 -25.171875 -4.234375 C -26.722656 -2.710938 -28.875 -1.867188 -31.625 -1.703125 C -33.9375 -1.554688 -36.054688 -2.035156 -37.984375 -3.140625 C -39.910156 -4.242188 -41.503906 -6 -42.765625 -8.40625 C -44.035156 -10.8125 -44.78125 -13.851562 -45 -17.53125 C -45.15625 -20.070312 -44.972656 -22.597656 -44.453125 -25.109375 C -43.941406 -27.628906 -43.125 -29.816406 -42 -31.671875 L -36.9375 -29.921875 C -37.976562 -28.035156 -38.734375 -26.039062 -39.203125 -23.9375 C -39.679688 -21.84375 -39.863281 -19.8125 -39.75 -17.84375 C -39.539062 -14.332031 -38.738281 -11.738281 -37.34375 -10.0625 C -35.957031 -8.394531 -34.253906 -7.625 -32.234375 -7.75 C -30.753906 -7.832031 -29.582031 -8.394531 -28.71875 -9.4375 C -27.851562 -10.488281 -27.207031 -11.757812 -26.78125 -13.25 C -26.351562 -14.738281 -25.921875 -16.757812 -25.484375 -19.3125 C -24.898438 -22.613281 -24.273438 -25.273438 -23.609375 -27.296875 C -22.953125 -29.328125 -21.859375 -31.101562 -20.328125 -32.625 C -18.804688 -34.15625 -16.6875 -35 -13.96875 -35.15625 C -11.695312 -35.300781 -9.585938 -34.804688 -7.640625 -33.671875 C -5.691406 -32.546875 -4.09375 -30.757812 -2.84375 -28.3125 C -1.601562 -25.863281 -0.875 -22.804688 -0.65625 -19.140625 Z M -0.65625 -19.140625 "/></g></g><g style="fill:rgb(32.939148%,32.939148%,32.939148%);fill-opacity:1;"><g transform="translate(96.926363, 186.832869)"><path style="stroke:none;" d="M -19 -19.078125 C -19.53125 -17.296875 -20.4375 -15.785156 -21.71875 -14.546875 C -23 -13.316406 -24.515625 -12.484375 -26.265625 -12.046875 C -28.015625 -11.609375 -29.773438 -11.65625 -31.546875 -12.1875 C -33.285156 -12.695312 -34.769531 -13.609375 -36 -14.921875 C -37.226562 -16.234375 -38.050781 -17.753906 -38.46875 -19.484375 C -38.882812 -21.222656 -38.828125 -22.984375 -38.296875 -24.765625 C -37.773438 -26.546875 -36.867188 -28.0625 -35.578125 -29.3125 C -34.285156 -30.570312 -32.765625 -31.421875 -31.015625 -31.859375 C -29.273438 -32.296875 -27.535156 -32.257812 -25.796875 -31.75 C -24.023438 -31.21875 -22.519531 -30.296875 -21.28125 -28.984375 C -20.050781 -27.671875 -19.234375 -26.132812 -18.828125 -24.375 C -18.421875 -22.625 -18.476562 -20.859375 -19 -19.078125 Z M -22.203125 -20.03125 C -21.671875 -21.851562 -21.847656 -23.5625 -22.734375 -25.15625 C -23.617188 -26.75 -24.96875 -27.816406 -26.78125 -28.359375 C -28.601562 -28.890625 -30.320312 -28.722656 -31.9375 -27.859375 C -33.550781 -26.992188 -34.625 -25.648438 -35.15625 -23.828125 C -35.695312 -22.003906 -35.53125 -20.296875 -34.65625 -18.703125 C -33.789062 -17.117188 -32.425781 -16.054688 -30.5625 -15.515625 C -28.707031 -14.960938 -26.984375 -15.117188 -25.390625 -15.984375 C -23.804688 -16.859375 -22.742188 -18.207031 -22.203125 -20.03125 Z M -22.203125 -20.03125 "/></g></g><g style="fill:rgb(32.939148%,32.939148%,32.939148%);fill-opacity:1;"><g transform="translate(101.847514, 162.623406)"><path style="stroke:none;" d="M 12.46875 -33.578125 L -1.71875 -15.40625 L 3.890625 -4.96875 L -0.03125 0.046875 L -22.125 -42.125 L -18.34375 -46.953125 L 27.953125 -35.78125 L 23.953125 -30.65625 Z M 7.234375 -34.90625 L -15.265625 -40.625 L -4.28125 -20.171875 Z M 7.234375 -34.90625 "/></g></g><g style="fill:rgb(32.939148%,32.939148%,32.939148%);fill-opacity:1;"><g transform="translate(129.674761, 129.382855)"><path style="stroke:none;" d="M -0.765625 -26.90625 C -2.367188 -25.96875 -4.0625 -25.488281 -5.84375 -25.46875 C -7.625 -25.457031 -9.300781 -25.890625 -10.875 -26.765625 C -12.445312 -27.640625 -13.703125 -28.878906 -14.640625 -30.484375 C -15.554688 -32.046875 -16.015625 -33.726562 -16.015625 -35.53125 C -16.015625 -37.332031 -15.570312 -39.003906 -14.6875 -40.546875 C -13.800781 -42.097656 -12.554688 -43.34375 -10.953125 -44.28125 C -9.347656 -45.21875 -7.644531 -45.703125 -5.84375 -45.734375 C -4.050781 -45.765625 -2.367188 -45.335938 -0.796875 -44.453125 C 0.773438 -43.578125 2.019531 -42.359375 2.9375 -40.796875 C 3.875 -39.191406 4.34375 -37.488281 4.34375 -35.6875 C 4.34375 -33.894531 3.890625 -32.21875 2.984375 -30.65625 C 2.085938 -29.09375 0.835938 -27.84375 -0.765625 -26.90625 Z M -2.453125 -29.796875 C -0.816406 -30.753906 0.21875 -32.117188 0.65625 -33.890625 C 1.101562 -35.671875 0.847656 -37.378906 -0.109375 -39.015625 C -1.066406 -40.648438 -2.425781 -41.703125 -4.1875 -42.171875 C -5.945312 -42.640625 -7.644531 -42.394531 -9.28125 -41.4375 C -10.925781 -40.476562 -11.976562 -39.117188 -12.4375 -37.359375 C -12.894531 -35.609375 -12.632812 -33.898438 -11.65625 -32.234375 C -10.675781 -30.554688 -9.304688 -29.488281 -7.546875 -29.03125 C -5.796875 -28.582031 -4.097656 -28.835938 -2.453125 -29.796875 Z M -2.453125 -29.796875 "/></g></g><g style="fill:rgb(32.939148%,32.939148%,32.939148%);fill-opacity:1;"><g transform="translate(149.913153, 115.166164)"><path style="stroke:none;" d="M 16.40625 -46.46875 C 21.945312 -47.332031 26.519531 -46.691406 30.125 -44.546875 C 33.726562 -42.398438 35.894531 -39 36.625 -34.34375 C 37.363281 -29.695312 36.34375 -25.796875 33.5625 -22.640625 C 30.789062 -19.492188 26.632812 -17.488281 21.09375 -16.625 L 10.5 -14.953125 L 12.546875 -1.96875 L 6.421875 -1.015625 L -0.3125 -43.84375 Z M 20.078125 -21.921875 C 23.953125 -22.523438 26.78125 -23.8125 28.5625 -25.78125 C 30.34375 -27.757812 30.988281 -30.296875 30.5 -33.390625 C 30.019531 -36.484375 28.628906 -38.695312 26.328125 -40.03125 C 24.023438 -41.375 20.9375 -41.742188 17.0625 -41.140625 L 6.65625 -39.5 L 9.671875 -20.28125 Z M 20.078125 -21.921875 "/></g></g><g style="fill:rgb(32.939148%,32.939148%,32.939148%);fill-opacity:1;"><g transform="translate(192.384993, 109.916552)"><path style="stroke:none;" d="M 17.765625 -20.234375 C 15.953125 -20.640625 14.382812 -21.441406 13.0625 -22.640625 C 11.75 -23.835938 10.8125 -25.289062 10.25 -27 C 9.695312 -28.71875 9.625 -30.484375 10.03125 -32.296875 C 10.425781 -34.054688 11.234375 -35.59375 12.453125 -36.90625 C 13.679688 -38.226562 15.144531 -39.15625 16.84375 -39.6875 C 18.550781 -40.21875 20.3125 -40.28125 22.125 -39.875 C 23.9375 -39.476562 25.507812 -38.675781 26.84375 -37.46875 C 28.1875 -36.257812 29.132812 -34.796875 29.6875 -33.078125 C 30.25 -31.367188 30.332031 -29.632812 29.9375 -27.875 C 29.53125 -26.0625 28.710938 -24.492188 27.484375 -23.171875 C 26.265625 -21.859375 24.789062 -20.941406 23.0625 -20.421875 C 21.34375 -19.898438 19.578125 -19.835938 17.765625 -20.234375 Z M 18.484375 -23.5 C 20.335938 -23.09375 22.03125 -23.382812 23.5625 -24.375 C 25.09375 -25.363281 26.066406 -26.785156 26.484375 -28.640625 C 26.890625 -30.484375 26.609375 -32.179688 25.640625 -33.734375 C 24.679688 -35.285156 23.273438 -36.265625 21.421875 -36.671875 C 19.566406 -37.085938 17.867188 -36.804688 16.328125 -35.828125 C 14.796875 -34.859375 13.820312 -33.429688 13.40625 -31.546875 C 12.988281 -29.648438 13.265625 -27.9375 14.234375 -26.40625 C 15.210938 -24.882812 16.628906 -23.914062 18.484375 -23.5 Z M 18.484375 -23.5 "/></g></g><g style="fill:rgb(32.939148%,32.939148%,32.939148%);fill-opacity:1;"><g transform="translate(216.981981, 113.721919)"><path style="stroke:none;" d="M 34.75 16.25 L 31.796875 20.765625 L 5.4375 3.546875 L 29.140625 -32.75 L 54.765625 -16 L 51.828125 -11.5 L 31.40625 -24.84375 L 24.125 -13.6875 L 42.328125 -1.796875 L 39.453125 2.609375 L 21.25 -9.28125 L 13.59375 2.4375 Z M 34.75 16.25 "/></g></g><g style="fill:rgb(32.939148%,32.939148%,32.939148%);fill-opacity:1;"><g transform="translate(249.767744, 136.471302)"><path style="stroke:none;" d="M 26.703125 -3.5 C 25.597656 -5.007812 24.945312 -6.644531 24.75 -8.40625 C 24.550781 -10.175781 24.804688 -11.890625 25.515625 -13.546875 C 26.222656 -15.203125 27.328125 -16.578125 28.828125 -17.671875 C 30.285156 -18.742188 31.910156 -19.367188 33.703125 -19.546875 C 35.503906 -19.734375 37.21875 -19.460938 38.84375 -18.734375 C 40.46875 -18.015625 41.832031 -16.898438 42.9375 -15.390625 C 44.03125 -13.898438 44.679688 -12.257812 44.890625 -10.46875 C 45.109375 -8.6875 44.859375 -6.96875 44.140625 -5.3125 C 43.421875 -3.664062 42.332031 -2.304688 40.875 -1.234375 C 39.375 -0.140625 37.726562 0.5 35.9375 0.6875 C 34.15625 0.875 32.441406 0.597656 30.796875 -0.140625 C 29.160156 -0.890625 27.796875 -2.007812 26.703125 -3.5 Z M 29.40625 -5.46875 C 30.519531 -3.9375 31.976562 -3.039062 33.78125 -2.78125 C 35.59375 -2.519531 37.265625 -2.953125 38.796875 -4.078125 C 40.328125 -5.191406 41.238281 -6.648438 41.53125 -8.453125 C 41.820312 -10.253906 41.410156 -11.921875 40.296875 -13.453125 C 39.171875 -14.992188 37.707031 -15.898438 35.90625 -16.171875 C 34.113281 -16.453125 32.4375 -16.019531 30.875 -14.875 C 29.3125 -13.726562 28.394531 -12.257812 28.125 -10.46875 C 27.851562 -8.675781 28.28125 -7.007812 29.40625 -5.46875 Z M 29.40625 -5.46875 "/></g></g><g style="fill:rgb(32.939148%,32.939148%,32.939148%);fill-opacity:1;"><g transform="translate(265.971257, 155.156908)"><path style="stroke:none;" d="M 47.890625 11.59375 C 49.328125 17.03125 49.15625 21.644531 47.375 25.4375 C 45.601562 29.238281 42.441406 31.738281 37.890625 32.9375 C 33.335938 34.132812 29.351562 33.519531 25.9375 31.09375 C 22.53125 28.664062 20.109375 24.734375 18.671875 19.296875 L 15.9375 8.9375 L 3.234375 12.28125 L 1.65625 6.28125 L 43.578125 -4.765625 Z M 23.84375 17.75 C 24.84375 21.539062 26.410156 24.21875 28.546875 25.78125 C 30.691406 27.351562 33.28125 27.738281 36.3125 26.9375 C 39.34375 26.132812 41.40625 24.519531 42.5 22.09375 C 43.601562 19.675781 43.65625 16.570312 42.65625 12.78125 L 39.96875 2.59375 L 21.15625 7.5625 Z M 23.84375 17.75 "/></g></g><g style="fill:rgb(32.939148%,32.939148%,32.939148%);fill-opacity:1;"><g transform="translate(275.517465, 196.873801)"><path style="stroke:none;" d="M 21.953125 15.609375 C 22.160156 13.765625 22.796875 12.125 23.859375 10.6875 C 24.921875 9.257812 26.273438 8.179688 27.921875 7.453125 C 29.566406 6.722656 31.304688 6.46875 33.140625 6.6875 C 34.941406 6.894531 36.5625 7.539062 38 8.625 C 39.4375 9.71875 40.503906 11.082031 41.203125 12.71875 C 41.898438 14.363281 42.144531 16.109375 41.9375 17.953125 C 41.71875 19.796875 41.078125 21.441406 40.015625 22.890625 C 38.953125 24.347656 37.59375 25.4375 35.9375 26.15625 C 34.289062 26.882812 32.566406 27.144531 30.765625 26.9375 C 28.929688 26.71875 27.296875 26.066406 25.859375 24.984375 C 24.429688 23.898438 23.367188 22.523438 22.671875 20.859375 C 21.972656 19.203125 21.734375 17.453125 21.953125 15.609375 Z M 25.265625 16 C 25.035156 17.882812 25.492188 19.535156 26.640625 20.953125 C 27.796875 22.378906 29.3125 23.203125 31.1875 23.421875 C 33.070312 23.640625 34.734375 23.1875 36.171875 22.0625 C 37.609375 20.945312 38.441406 19.445312 38.671875 17.5625 C 38.890625 15.675781 38.4375 14.019531 37.3125 12.59375 C 36.1875 11.175781 34.660156 10.351562 32.734375 10.125 C 30.816406 9.894531 29.144531 10.34375 27.71875 11.46875 C 26.300781 12.601562 25.484375 14.113281 25.265625 16 Z M 25.265625 16 "/></g></g><g clip-rule="nonzero" clip-path="url(#clip2)"><path style=" stroke:none;fill-rule:nonzero;fill:rgb(32.939148%,32.939148%,32.939148%);fill-opacity:1;" d="M 92.640625 268.773438 C 93.21875 269.523438 93.105469 270.625 92.351562 271.203125 C 92.003906 271.433594 91.660156 271.605469 91.253906 271.605469 C 90.734375 271.605469 90.210938 271.375 89.867188 270.972656 C 89.285156 270.21875 89.402344 269.121094 90.15625 268.542969 C 90.90625 267.90625 92.003906 268.019531 92.640625 268.773438 Z M 115.953125 98.429688 C 116.300781 98.429688 116.644531 98.3125 116.933594 98.082031 C 117.746094 97.503906 117.917969 96.460938 117.339844 95.652344 C 116.761719 94.84375 115.71875 94.667969 114.910156 95.246094 C 114.101562 95.828125 113.925781 96.867188 114.507812 97.675781 C 114.851562 98.199219 115.429688 98.429688 115.953125 98.429688 Z M 125.613281 92.183594 C 125.902344 92.183594 126.191406 92.125 126.480469 91.949219 C 127.289062 91.488281 127.578125 90.390625 127.117188 89.578125 C 126.652344 88.769531 125.554688 88.480469 124.742188 88.941406 C 123.933594 89.40625 123.644531 90.503906 124.109375 91.316406 C 124.453125 91.894531 125.03125 92.183594 125.613281 92.183594 Z M 117.167969 292.140625 C 116.355469 291.5625 115.316406 291.792969 114.738281 292.546875 C 114.160156 293.355469 114.390625 294.398438 115.140625 294.976562 C 115.429688 295.207031 115.777344 295.320312 116.125 295.320312 C 116.644531 295.320312 117.222656 295.089844 117.511719 294.570312 C 118.148438 293.816406 117.976562 292.71875 117.167969 292.140625 Z M 100.046875 277.332031 C 99.410156 276.640625 98.308594 276.640625 97.617188 277.277344 C 96.921875 277.910156 96.921875 279.011719 97.558594 279.703125 C 97.90625 280.050781 98.367188 280.226562 98.832031 280.226562 C 99.234375 280.226562 99.699219 280.050781 100.046875 279.761719 C 100.683594 279.125 100.738281 278.027344 100.046875 277.332031 Z M 105.828125 285.316406 C 105.195312 286.066406 105.25 287.109375 106.003906 287.746094 C 106.351562 288.035156 106.753906 288.148438 107.160156 288.148438 C 107.621094 288.148438 108.144531 287.976562 108.492188 287.570312 C 109.125 286.878906 109.070312 285.71875 108.316406 285.140625 C 107.566406 284.503906 106.464844 284.621094 105.828125 285.316406 Z M 106.929688 105.542969 C 107.332031 105.542969 107.738281 105.429688 108.085938 105.140625 C 108.78125 104.503906 108.894531 103.402344 108.257812 102.710938 C 107.621094 102.015625 106.523438 101.898438 105.828125 102.535156 C 105.136719 103.171875 105.019531 104.269531 105.65625 104.964844 C 105.945312 105.371094 106.40625 105.542969 106.929688 105.542969 Z M 98.597656 113.527344 C 99.0625 113.527344 99.523438 113.351562 99.871094 113.003906 C 100.507812 112.3125 100.507812 111.210938 99.8125 110.574219 C 99.121094 109.941406 98.019531 109.941406 97.386719 110.632812 C 96.75 111.328125 96.75 112.425781 97.441406 113.0625 C 97.730469 113.351562 98.195312 113.527344 98.597656 113.527344 Z M 157.539062 79.339844 C 157.65625 79.339844 157.828125 79.339844 157.945312 79.285156 C 158.871094 79.050781 159.449219 78.125 159.21875 77.203125 C 158.984375 76.277344 158.0625 75.699219 157.136719 75.929688 C 156.210938 76.160156 155.632812 77.085938 155.863281 78.011719 C 156.035156 78.820312 156.730469 79.339844 157.539062 79.339844 Z M 158.175781 310.882812 C 157.25 310.648438 156.324219 311.230469 156.09375 312.152344 C 155.863281 313.078125 156.441406 314.003906 157.367188 314.238281 C 157.480469 314.238281 157.65625 314.292969 157.769531 314.292969 C 158.582031 314.292969 159.273438 313.773438 159.449219 312.964844 C 159.679688 312.039062 159.101562 311.113281 158.175781 310.882812 Z M 168.820312 77.144531 C 168.878906 77.144531 168.992188 77.144531 169.050781 77.144531 C 169.976562 77.027344 170.671875 76.101562 170.496094 75.175781 C 170.382812 74.25 169.457031 73.558594 168.53125 73.730469 C 167.605469 73.847656 166.910156 74.773438 167.082031 75.699219 C 167.199219 76.566406 167.953125 77.144531 168.820312 77.144531 Z M 147.300781 307.699219 C 146.375 307.410156 145.394531 307.875 145.105469 308.800781 C 144.816406 309.726562 145.277344 310.707031 146.203125 310.996094 C 146.375 311.054688 146.609375 311.113281 146.78125 311.113281 C 147.476562 311.113281 148.167969 310.648438 148.402344 309.957031 C 148.691406 308.972656 148.226562 307.988281 147.300781 307.699219 Z M 126.710938 298.273438 C 125.902344 297.808594 124.800781 298.097656 124.339844 298.910156 C 123.875 299.71875 124.164062 300.816406 124.976562 301.28125 C 125.265625 301.453125 125.554688 301.511719 125.84375 301.511719 C 126.421875 301.511719 127 301.222656 127.347656 300.644531 C 127.808594 299.832031 127.519531 298.734375 126.710938 298.273438 Z M 146.492188 82.582031 C 146.664062 82.582031 146.839844 82.523438 147.070312 82.464844 C 147.996094 82.117188 148.457031 81.132812 148.167969 80.265625 C 147.824219 79.339844 146.839844 78.878906 145.972656 79.226562 C 145.046875 79.515625 144.582031 80.554688 144.929688 81.425781 C 145.105469 82.175781 145.742188 82.582031 146.492188 82.582031 Z M 135.847656 86.917969 C 136.082031 86.917969 136.3125 86.859375 136.542969 86.746094 C 137.410156 86.339844 137.816406 85.300781 137.410156 84.433594 C 137.007812 83.5625 135.964844 83.160156 135.097656 83.5625 C 134.230469 83.96875 133.824219 85.011719 134.230469 85.878906 C 134.519531 86.515625 135.15625 86.917969 135.847656 86.917969 Z M 136.773438 303.476562 C 135.90625 303.074219 134.867188 303.476562 134.460938 304.34375 C 134.054688 305.214844 134.460938 306.253906 135.328125 306.660156 C 135.558594 306.773438 135.792969 306.832031 136.023438 306.832031 C 136.660156 306.832031 137.296875 306.429688 137.585938 305.792969 C 138.046875 304.925781 137.640625 303.882812 136.773438 303.476562 Z M 169.339844 312.964844 C 168.414062 312.847656 167.488281 313.484375 167.375 314.410156 C 167.257812 315.335938 167.894531 316.261719 168.820312 316.375 C 168.878906 316.375 168.992188 316.375 169.050781 316.375 C 169.917969 316.375 170.671875 315.742188 170.785156 314.871094 C 170.902344 314.003906 170.265625 313.136719 169.339844 312.964844 Z M 67.132812 174.027344 C 67.25 174.027344 67.363281 174.085938 67.480469 174.085938 C 68.289062 174.085938 69.042969 173.507812 69.15625 172.699219 C 69.332031 171.773438 68.695312 170.847656 67.769531 170.671875 C 66.84375 170.5 65.917969 171.136719 65.746094 172.0625 C 65.570312 172.929688 66.207031 173.855469 67.132812 174.027344 Z M 65.6875 185.421875 C 65.746094 185.421875 65.804688 185.421875 65.859375 185.421875 C 66.730469 185.421875 67.480469 184.730469 67.597656 183.863281 C 67.710938 182.9375 66.960938 182.066406 66.035156 181.953125 C 65.109375 181.835938 64.242188 182.589844 64.125 183.515625 C 64.066406 184.496094 64.761719 185.367188 65.6875 185.421875 Z M 67.074219 195.199219 C 67.074219 194.214844 66.265625 193.464844 65.339844 193.464844 C 64.355469 193.464844 63.605469 194.273438 63.605469 195.199219 C 63.605469 196.183594 64.355469 196.933594 65.339844 196.933594 C 66.324219 196.933594 67.074219 196.125 67.074219 195.199219 Z M 66.035156 208.386719 C 66.960938 208.269531 67.710938 207.460938 67.597656 206.476562 C 67.480469 205.496094 66.671875 204.800781 65.6875 204.914062 C 64.703125 205.03125 64.011719 205.839844 64.125 206.824219 C 64.183594 207.691406 64.992188 208.386719 65.859375 208.386719 C 65.917969 208.386719 65.976562 208.386719 66.035156 208.386719 Z M 303.128906 172.234375 C 303.300781 173.046875 303.996094 173.625 304.804688 173.625 C 304.921875 173.625 305.035156 173.625 305.152344 173.566406 C 306.078125 173.390625 306.714844 172.464844 306.539062 171.542969 C 306.367188 170.617188 305.441406 169.980469 304.515625 170.152344 C 303.589844 170.382812 302.953125 171.308594 303.128906 172.234375 Z M 304.804688 183.457031 C 304.863281 184.324219 305.671875 185.019531 306.539062 185.019531 C 306.597656 185.019531 306.65625 185.019531 306.714844 185.019531 C 307.695312 184.902344 308.390625 184.09375 308.273438 183.109375 C 308.160156 182.125 307.351562 181.433594 306.367188 181.546875 C 305.382812 181.664062 304.6875 182.53125 304.804688 183.457031 Z M 69.679688 162.808594 C 69.851562 162.863281 70.027344 162.863281 70.199219 162.863281 C 70.949219 162.863281 71.644531 162.402344 71.875 161.59375 C 72.164062 160.667969 71.644531 159.683594 70.71875 159.453125 C 69.792969 159.164062 68.8125 159.683594 68.578125 160.609375 C 68.234375 161.59375 68.753906 162.519531 69.679688 162.808594 Z M 69.214844 217.699219 C 69.042969 216.773438 68.117188 216.136719 67.191406 216.308594 C 66.265625 216.484375 65.628906 217.410156 65.804688 218.335938 C 65.976562 219.144531 66.671875 219.722656 67.480469 219.722656 C 67.597656 219.722656 67.710938 219.722656 67.828125 219.664062 C 68.8125 219.550781 69.390625 218.683594 69.214844 217.699219 Z M 77.890625 141.347656 C 78.125 141.464844 78.414062 141.519531 78.703125 141.519531 C 79.339844 141.519531 79.917969 141.175781 80.261719 140.597656 C 80.726562 139.726562 80.378906 138.6875 79.511719 138.28125 C 78.644531 137.820312 77.601562 138.167969 77.199219 139.035156 C 76.675781 139.84375 77.023438 140.886719 77.890625 141.347656 Z M 78.007812 248.992188 C 77.140625 249.453125 76.851562 250.496094 77.257812 251.304688 C 77.546875 251.882812 78.179688 252.230469 78.816406 252.230469 C 79.105469 252.230469 79.339844 252.171875 79.628906 252.058594 C 80.496094 251.59375 80.84375 250.554688 80.378906 249.742188 C 79.917969 248.875 78.875 248.585938 78.007812 248.992188 Z M 83.503906 131.285156 C 83.792969 131.457031 84.140625 131.574219 84.429688 131.574219 C 85.007812 131.574219 85.585938 131.285156 85.875 130.761719 C 86.394531 129.953125 86.164062 128.910156 85.355469 128.390625 C 84.542969 127.871094 83.503906 128.101562 82.980469 128.910156 C 82.460938 129.722656 82.691406 130.761719 83.503906 131.285156 Z M 83.617188 259.054688 C 82.808594 259.574219 82.578125 260.675781 83.097656 261.484375 C 83.445312 262.003906 83.964844 262.292969 84.542969 262.292969 C 84.890625 262.292969 85.179688 262.238281 85.46875 262.003906 C 86.277344 261.484375 86.511719 260.386719 85.988281 259.574219 C 85.527344 258.765625 84.429688 258.535156 83.617188 259.054688 Z M 90.039062 121.855469 C 90.328125 122.085938 90.734375 122.203125 91.078125 122.203125 C 91.601562 122.203125 92.121094 121.972656 92.46875 121.566406 C 93.046875 120.8125 92.929688 119.714844 92.179688 119.136719 C 91.425781 118.558594 90.328125 118.675781 89.75 119.425781 C 89.113281 120.121094 89.285156 121.21875 90.039062 121.855469 Z M 73.265625 151.875 C 73.496094 151.992188 73.667969 151.992188 73.902344 151.992188 C 74.59375 151.992188 75.230469 151.585938 75.519531 150.890625 C 75.867188 150.023438 75.460938 148.984375 74.539062 148.636719 C 73.667969 148.289062 72.628906 148.695312 72.28125 149.621094 C 71.933594 150.488281 72.398438 151.527344 73.265625 151.875 Z M 73.378906 238.464844 C 72.511719 238.8125 72.050781 239.851562 72.398438 240.71875 C 72.6875 241.414062 73.324219 241.820312 74.015625 241.820312 C 74.25 241.820312 74.480469 241.761719 74.652344 241.703125 C 75.519531 241.355469 75.984375 240.316406 75.636719 239.445312 C 75.289062 238.523438 74.25 238.117188 73.378906 238.464844 Z M 69.738281 227.53125 C 68.8125 227.820312 68.289062 228.746094 68.578125 229.671875 C 68.8125 230.425781 69.503906 230.886719 70.257812 230.886719 C 70.429688 230.886719 70.605469 230.886719 70.71875 230.828125 C 71.644531 230.539062 72.164062 229.613281 71.875 228.6875 C 71.644531 227.820312 70.660156 227.300781 69.738281 227.53125 Z M 288.839844 258.941406 C 288.03125 258.417969 286.988281 258.652344 286.410156 259.460938 C 285.890625 260.269531 286.121094 261.3125 286.933594 261.832031 C 287.222656 262.003906 287.566406 262.121094 287.855469 262.121094 C 288.4375 262.121094 288.957031 261.832031 289.304688 261.3125 C 289.882812 260.5 289.648438 259.460938 288.839844 258.941406 Z M 281.089844 121.855469 C 281.496094 121.855469 281.839844 121.738281 282.1875 121.449219 C 282.941406 120.871094 283.054688 119.773438 282.476562 119.019531 C 281.898438 118.269531 280.800781 118.152344 280.046875 118.730469 C 279.296875 119.308594 279.179688 120.410156 279.757812 121.160156 C 280.046875 121.683594 280.570312 121.855469 281.089844 121.855469 Z M 287.742188 131.226562 C 288.089844 131.226562 288.378906 131.109375 288.667969 130.9375 C 289.476562 130.414062 289.707031 129.316406 289.1875 128.566406 C 288.667969 127.753906 287.566406 127.523438 286.816406 128.042969 C 286.007812 128.566406 285.773438 129.664062 286.296875 130.472656 C 286.640625 130.9375 287.164062 131.226562 287.742188 131.226562 Z M 282.304688 268.367188 C 281.550781 267.789062 280.453125 267.90625 279.875 268.65625 C 279.296875 269.410156 279.414062 270.507812 280.164062 271.085938 C 280.511719 271.316406 280.859375 271.433594 281.261719 271.433594 C 281.785156 271.433594 282.304688 271.203125 282.652344 270.796875 C 283.171875 270.046875 283.054688 268.945312 282.304688 268.367188 Z M 293.527344 141.175781 C 293.816406 141.175781 294.046875 141.117188 294.335938 141 C 295.203125 140.539062 295.492188 139.496094 295.085938 138.6875 C 294.625 137.820312 293.582031 137.53125 292.773438 137.933594 C 291.90625 138.398438 291.617188 139.4375 292.023438 140.25 C 292.3125 140.828125 292.890625 141.175781 293.527344 141.175781 Z M 294.449219 248.875 C 293.582031 248.414062 292.542969 248.757812 292.136719 249.628906 C 291.675781 250.496094 292.023438 251.535156 292.890625 251.941406 C 293.121094 252.054688 293.410156 252.113281 293.699219 252.113281 C 294.335938 252.113281 294.914062 251.765625 295.261719 251.1875 C 295.664062 250.378906 295.320312 249.339844 294.449219 248.875 Z M 272.414062 277.21875 C 271.777344 277.910156 271.777344 279.011719 272.472656 279.648438 C 272.820312 279.996094 273.222656 280.109375 273.6875 280.109375 C 274.148438 280.109375 274.613281 279.9375 274.957031 279.589844 C 275.652344 278.894531 275.59375 277.796875 274.902344 277.160156 C 274.207031 276.523438 273.109375 276.523438 272.414062 277.21875 Z M 264.257812 285.085938 C 263.5625 285.71875 263.449219 286.820312 264.085938 287.511719 C 264.429688 287.917969 264.894531 288.09375 265.414062 288.09375 C 265.820312 288.09375 266.222656 287.976562 266.570312 287.6875 C 267.265625 287.050781 267.382812 285.953125 266.746094 285.257812 C 266.050781 284.503906 264.953125 284.449219 264.257812 285.085938 Z M 273.511719 113.179688 C 273.917969 113.179688 274.378906 113.003906 274.726562 112.714844 C 275.421875 112.078125 275.421875 110.921875 274.785156 110.285156 C 274.148438 109.59375 273.050781 109.59375 272.355469 110.230469 C 271.660156 110.867188 271.660156 111.964844 272.296875 112.660156 C 272.585938 113.003906 273.050781 113.179688 273.511719 113.179688 Z M 302.144531 162.460938 C 302.316406 162.460938 302.492188 162.460938 302.605469 162.402344 C 303.53125 162.113281 304.054688 161.1875 303.761719 160.261719 C 303.472656 159.335938 302.550781 158.816406 301.625 159.105469 C 300.699219 159.394531 300.175781 160.320312 300.464844 161.246094 C 300.699219 161.996094 301.390625 162.460938 302.144531 162.460938 Z M 306.714844 204.800781 C 305.789062 204.683594 304.921875 205.4375 304.804688 206.363281 C 304.6875 207.34375 305.441406 208.15625 306.367188 208.269531 C 306.425781 208.269531 306.480469 208.269531 306.539062 208.269531 C 307.40625 208.269531 308.160156 207.578125 308.273438 206.707031 C 308.332031 205.726562 307.640625 204.914062 306.714844 204.800781 Z M 305.210938 216.195312 C 304.285156 216.019531 303.359375 216.65625 303.183594 217.582031 C 303.011719 218.507812 303.648438 219.433594 304.574219 219.609375 C 304.6875 219.609375 304.804688 219.609375 304.921875 219.609375 C 305.730469 219.609375 306.480469 219.027344 306.597656 218.21875 C 306.769531 217.292969 306.191406 216.367188 305.210938 216.195312 Z M 308.796875 194.792969 C 308.796875 193.808594 307.984375 193.058594 307.0625 193.058594 C 306.078125 193.058594 305.324219 193.808594 305.324219 194.792969 C 305.324219 194.851562 305.324219 194.910156 305.324219 194.910156 C 305.324219 194.96875 305.324219 194.96875 305.324219 195.023438 C 305.324219 195.949219 306.078125 196.761719 307.0625 196.761719 C 307.984375 196.761719 308.796875 196.007812 308.796875 195.023438 C 308.796875 194.96875 308.796875 194.910156 308.796875 194.910156 C 308.796875 194.910156 308.796875 194.792969 308.796875 194.792969 Z M 299.078125 238.347656 C 298.210938 238 297.167969 238.40625 296.824219 239.332031 C 296.476562 240.199219 296.878906 241.242188 297.804688 241.585938 C 298.039062 241.644531 298.269531 241.703125 298.441406 241.703125 C 299.136719 241.703125 299.773438 241.296875 300.0625 240.605469 C 300.410156 239.738281 300.003906 238.695312 299.078125 238.347656 Z M 298.328125 151.644531 C 298.558594 151.644531 298.789062 151.585938 298.960938 151.527344 C 299.832031 151.179688 300.292969 150.140625 299.945312 149.273438 C 299.597656 148.40625 298.558594 147.941406 297.691406 148.289062 C 296.824219 148.636719 296.359375 149.675781 296.707031 150.542969 C 296.996094 151.179688 297.632812 151.644531 298.328125 151.644531 Z M 265.183594 105.3125 C 265.644531 105.3125 266.167969 105.082031 266.511719 104.734375 C 267.148438 103.980469 267.09375 102.882812 266.339844 102.304688 C 265.644531 101.667969 264.488281 101.726562 263.910156 102.476562 C 263.273438 103.171875 263.390625 104.269531 264.085938 104.90625 C 264.375 105.140625 264.777344 105.3125 265.183594 105.3125 Z M 180.214844 76.042969 L 180.273438 76.042969 C 181.253906 75.988281 181.949219 75.175781 181.949219 74.195312 C 181.890625 73.269531 181.082031 72.515625 180.15625 72.574219 C 179.171875 72.632812 178.480469 73.441406 178.535156 74.367188 C 178.535156 75.351562 179.347656 76.042969 180.214844 76.042969 Z M 302.664062 227.417969 C 301.738281 227.125 300.757812 227.648438 300.523438 228.574219 C 300.234375 229.5 300.757812 230.425781 301.679688 230.714844 C 301.855469 230.769531 302.027344 230.769531 302.144531 230.769531 C 302.894531 230.769531 303.589844 230.25 303.820312 229.5 C 304.109375 228.6875 303.589844 227.707031 302.664062 227.417969 Z M 203.234375 312.964844 C 202.308594 313.078125 201.617188 314.003906 201.789062 314.929688 C 201.90625 315.796875 202.65625 316.433594 203.523438 316.433594 C 203.582031 316.433594 203.699219 316.433594 203.753906 316.433594 C 204.679688 316.320312 205.375 315.394531 205.203125 314.46875 C 205.027344 313.484375 204.160156 312.847656 203.234375 312.964844 Z M 214.109375 79.226562 C 214.226562 79.285156 214.398438 79.285156 214.515625 79.285156 C 215.324219 79.285156 216.019531 78.761719 216.191406 77.953125 C 216.421875 77.027344 215.84375 76.101562 214.917969 75.871094 C 213.992188 75.640625 213.066406 76.21875 212.835938 77.144531 C 212.605469 78.070312 213.125 78.996094 214.109375 79.226562 Z M 202.945312 77.085938 C 203.003906 77.085938 203.121094 77.085938 203.175781 77.085938 C 204.042969 77.085938 204.796875 76.449219 204.914062 75.582031 C 205.027344 74.65625 204.390625 73.730469 203.464844 73.617188 C 202.539062 73.5 201.617188 74.136719 201.5 75.121094 C 201.324219 76.101562 202.019531 76.96875 202.945312 77.085938 Z M 214.339844 310.824219 C 213.414062 311.054688 212.835938 311.980469 213.066406 312.90625 C 213.242188 313.714844 213.992188 314.238281 214.746094 314.238281 C 214.859375 314.238281 215.035156 314.238281 215.148438 314.179688 C 216.074219 313.945312 216.652344 313.023438 216.421875 312.097656 C 216.191406 311.171875 215.265625 310.59375 214.339844 310.824219 Z M 180.617188 314.0625 C 179.695312 314.003906 178.824219 314.757812 178.824219 315.683594 C 178.769531 316.664062 179.519531 317.476562 180.503906 317.476562 L 180.5625 317.476562 C 181.488281 317.476562 182.238281 316.78125 182.296875 315.796875 C 182.296875 314.929688 181.542969 314.0625 180.617188 314.0625 Z M 191.667969 76.042969 L 191.722656 76.042969 C 192.648438 76.042969 193.402344 75.351562 193.460938 74.367188 C 193.515625 73.441406 192.765625 72.574219 191.78125 72.574219 C 190.800781 72.515625 189.988281 73.269531 189.988281 74.25 C 189.988281 75.175781 190.742188 75.988281 191.667969 76.042969 Z M 191.957031 314.0625 C 190.972656 314.121094 190.277344 314.929688 190.277344 315.855469 C 190.335938 316.78125 191.089844 317.535156 192.011719 317.535156 L 192.128906 317.535156 C 193.054688 317.476562 193.808594 316.664062 193.75 315.742188 C 193.691406 314.757812 192.882812 314.003906 191.957031 314.0625 Z M 235.742188 303.421875 C 234.875 303.824219 234.46875 304.867188 234.875 305.734375 C 235.164062 306.371094 235.800781 306.773438 236.4375 306.773438 C 236.667969 306.773438 236.898438 306.71875 237.128906 306.601562 C 237.996094 306.195312 238.402344 305.15625 237.996094 304.289062 C 237.652344 303.421875 236.609375 303.015625 235.742188 303.421875 Z M 224.984375 82.347656 C 225.15625 82.40625 225.386719 82.464844 225.5625 82.464844 C 226.257812 82.464844 226.949219 82.003906 227.179688 81.308594 C 227.46875 80.382812 227.007812 79.398438 226.082031 79.109375 C 225.15625 78.820312 224.171875 79.285156 223.882812 80.210938 C 223.59375 81.078125 224.058594 82.058594 224.984375 82.347656 Z M 245.804688 298.214844 C 244.996094 298.675781 244.707031 299.777344 245.171875 300.585938 C 245.515625 301.164062 246.09375 301.453125 246.675781 301.453125 C 246.964844 301.453125 247.253906 301.394531 247.542969 301.222656 C 248.351562 300.757812 248.640625 299.660156 248.179688 298.851562 C 247.714844 298.039062 246.617188 297.75 245.804688 298.214844 Z M 255.117188 97.851562 C 255.40625 98.082031 255.753906 98.199219 256.101562 98.199219 C 256.621094 98.199219 257.199219 97.964844 257.546875 97.445312 C 258.125 96.636719 257.894531 95.59375 257.144531 95.015625 C 256.332031 94.4375 255.292969 94.667969 254.714844 95.421875 C 254.136719 96.171875 254.367188 97.332031 255.117188 97.851562 Z M 245.574219 91.71875 C 245.863281 91.894531 246.152344 91.949219 246.441406 91.949219 C 247.019531 91.949219 247.597656 91.660156 247.945312 91.082031 C 248.410156 90.273438 248.121094 89.175781 247.308594 88.710938 C 246.5 88.25 245.402344 88.539062 244.9375 89.347656 C 244.476562 90.214844 244.765625 91.257812 245.574219 91.71875 Z M 255.351562 292.082031 C 254.597656 292.660156 254.367188 293.703125 254.945312 294.511719 C 255.292969 294.976562 255.8125 295.207031 256.332031 295.207031 C 256.679688 295.207031 257.027344 295.089844 257.316406 294.859375 C 258.070312 294.28125 258.300781 293.238281 257.722656 292.429688 C 257.199219 291.679688 256.101562 291.503906 255.351562 292.082031 Z M 225.214844 307.640625 C 224.289062 307.929688 223.828125 308.914062 224.117188 309.839844 C 224.347656 310.535156 225.042969 310.996094 225.734375 310.996094 C 225.910156 310.996094 226.082031 310.996094 226.3125 310.882812 C 227.238281 310.59375 227.703125 309.609375 227.355469 308.683594 C 227.125 307.816406 226.140625 307.351562 225.214844 307.640625 Z M 235.511719 86.570312 C 235.742188 86.6875 235.972656 86.746094 236.203125 86.746094 C 236.839844 86.746094 237.476562 86.398438 237.765625 85.703125 C 238.171875 84.835938 237.765625 83.796875 236.898438 83.390625 C 236.03125 82.984375 234.988281 83.390625 234.585938 84.257812 C 234.238281 85.125 234.644531 86.167969 235.511719 86.570312 Z M 235.511719 86.570312 "/></g><path style=" stroke:none;fill-rule:nonzero;fill:rgb(32.939148%,32.939148%,32.939148%);fill-opacity:1;" d="M 124.378906 230.046875 C 131.492188 230.046875 138.605469 230.046875 145.722656 230.046875 C 146.9375 230.046875 147.9375 229.226562 148.292969 228.085938 C 152.738281 213.839844 157.1875 199.59375 161.632812 185.347656 C 159.917969 185.347656 158.203125 185.347656 156.488281 185.347656 C 161.824219 200.1875 167.160156 215.027344 172.496094 229.867188 C 173.347656 232.230469 176.953125 232.59375 177.640625 229.867188 C 183.570312 206.421875 189.5 182.972656 195.429688 159.527344 C 193.714844 159.527344 192 159.527344 190.285156 159.527344 C 195.917969 191.582031 201.546875 223.632812 207.179688 255.6875 C 207.574219 257.929688 211.085938 258.335938 212.058594 256.328125 C 216.339844 247.464844 220.625 238.605469 224.90625 229.742188 C 225.972656 227.539062 221.589844 230.046875 224.472656 230.046875 C 227.28125 230.046875 230.085938 230.046875 232.894531 230.046875 C 237.925781 230.046875 242.960938 230.046875 247.996094 230.046875 C 251.4375 230.046875 251.4375 224.707031 247.996094 224.707031 C 239.695312 224.707031 231.394531 224.707031 223.09375 224.707031 C 222.210938 224.707031 221.191406 225.199219 220.789062 226.027344 C 216.34375 235.230469 211.898438 244.429688 207.449219 253.628906 C 209.078125 253.84375 210.699219 254.054688 212.328125 254.269531 C 206.691406 222.214844 201.0625 190.160156 195.429688 158.105469 C 194.960938 155.441406 190.902344 155.664062 190.285156 158.105469 C 184.355469 181.554688 178.425781 205 172.496094 228.449219 C 174.210938 228.449219 175.925781 228.449219 177.640625 228.449219 C 172.304688 213.605469 166.96875 198.769531 161.632812 183.929688 C 160.75 181.46875 157.308594 181.304688 156.488281 183.929688 C 152.042969 198.175781 147.597656 212.421875 143.148438 226.667969 C 144.007812 226.011719 144.863281 225.359375 145.722656 224.707031 C 138.605469 224.707031 131.492188 224.707031 124.378906 224.707031 C 120.9375 224.707031 120.9375 230.046875 124.378906 230.046875 Z M 124.378906 230.046875 "/></g></svg>